PathFileType	4	(X/Y/Z)	C:/Users/beibeiliu/ov580/test_trc/User1\sequence.38_training_dense_right.trc
DataRate	CameraRate	NumFrames	NumMarkers	Units	OrigDataRate	OrigDataStartFrame	OrigNumFrames
120	120	20	19	mm	120	376	500
Frame#	Time	ThumbCMC			ThumbMCP			ThumbIP			ThumbTip			IndexMCP			IndexPIP			IndexTip			MiddleMCP			MiddlePIP			MiddleTip			RingMCP			RingPIP			RingTip			PinkyMCP			PinkyPIP			PinkyTip			BackHand1			BackHand2			BackHand3	
		X0	Y0	Z0	X1	Y1	Z1	X2	Y2	Z2	X3	Y3	Z3	X4	Y4	Z4	X5	Y5	Z5	X6	Y6	Z6	X7	Y7	Z7	X8	Y8	Z8	X9	Y9	Z9	X10	Y10	Z10	X11	Y11	Z11	X12	Y12	Z12	X13	Y13	Z13	X14	Y14	Z14	X15	Y15	Z15	X16	Y16	Z16	X17	Y17	Z17	X18	Y18	Z18	
375	3.125	175.629	-50.7821	67.1124	172.434	-62.3513	28.7454	179.324	-63.5744	-2.43354	195.899	-68.7964	-23.3477	205.482	-8.94383	1.1233	205.59	-14.5312	-30.9245	205.637	-46.7229	-47.5632	233.23	-15.2332	-4.71908	229.371	-31.7071	-32.9236	219.543	-71.2167	-31.5339	255.239	-19.9293	9.3807	262.742	-27.1887	-23.1735	254.009	-49.7999	-44.9074	271.181	-43.5216	30.4288	287.634	-44.1558	14.7438	303.369	-37.9868	-3.29403	239.787	-29.6029	66.6803	233.749	-39.2912	97.5566	203.611	-23.2099	75.8639	
376	3.13333	175.443	-49.2572	63.5757	170.421	-64.3656	29.8762	181.775	-62.7346	-1.65524	195.98	-69.0431	-24.5462	204.014	-7.33955	-3.53876	205.758	-17.1223	-34.142	203.242	-42.4117	-47.2397	234.404	-15.5672	-3.73997	228.968	-33.736	-33.3236	214.799	-70.3643	-32.237	254.865	-19.106	6.59885	261.816	-26.69	-22.0396	253.802	-46.687	-41.7837	272.998	-42.7814	27.249	289.887	-45.4597	14.0917	304.362	-39.9955	-6.41849	241.781	-33.2761	67.7545	233.919	-41.4995	99.6497	208.791	-21.5247	75.1552	
377	3.14167	174.882	-51.6666	66.5378	172.01	-61.2268	27.5798	181.869	-62.5851	1.62203	195.083	-68.6109	-23.4376	203.142	-7.66228	-2.03019	207.242	-17.4604	-33.2284	206.631	-43.8096	-46.1879	231.815	-13.145	-5.51276	230.472	-34.7506	-34.5249	216.9	-67.3677	-34.1177	257.433	-22.5078	11.4953	260.844	-29.518	-26.1249	252.658	-50.3307	-41.8394	272.06	-45.1861	30.4516	288.834	-44.7109	11.4981	299.35	-37.9284	-5.68737	242.334	-32.1429	65.4426	237.801	-40.4283	96.4465	205.733	-22.7999	78.639	
378	3.15	176.699	-51.798	67.9841	168.475	-63.751	29.4401	182.404	-62.4471	-0.0730297	195.245	-68.7486	-18.1254	202.26	-7.08015	1.99018	206.26	-16.9617	-31.5618	199.802	-45.9299	-47.749	229.469	-11.7815	-3.67094	231.61	-29.3543	-33.2761	219.109	-64.1648	-37.1261	253.091	-21.364	9.96414	260.622	-31.0212	-25.6137	248.543	-52.6805	-42.6619	273.483	-45.1272	28.8538	286.295	-43.8641	11.3889	301.973	-41.982	-8.95045	241.362	-31.4562	65.0629	233.009	-40.1551	100.58	208.059	-23.0363	75.769	
379	3.15833	172.913	-48.6609	63.6276	174.645	-60.2937	29.0937	181.526	-63.4072	3.55476	196.183	-68.8479	-17.8303	205.063	-7.35676	1.42806	204.604	-14.9289	-29.5373	201.486	-44.4899	-46.8921	234.306	-11.6589	-4.5132	230.778	-27.1707	-33.3334	221.36	-63.2573	-40.2258	252.927	-21.3222	6.48822	257.102	-28.5839	-22.9946	250.704	-54.4661	-40.1874	274.054	-47.483	31.0187	287.634	-44.3608	10.0115	300.691	-39.0826	-10.8521	244.714	-31.9457	67.6325	239.055	-39.4199	95.7806	207.889	-25.8814	78.7007	
380	3.16667	171.895	-51.6699	68.3442	174.829	-60.907	28.6994	179.607	-63.6056	1.81361	197.764	-69.5037	-20.2314	206.054	-6.71021	-2.71406	204.453	-14.3345	-30.1603	202.818	-45.8854	-46.9157	232.613	-11.8704	-2.7353	230.962	-26.6256	-34.659	217.008	-62.6532	-43.7325	256.098	-22.2333	5.38878	257.998	-32.3714	-24.0061	244.539	-54.1193	-40.7318	269.853	-44.892	30.4738	288.233	-45.0755	8.92697	298.433	-41.7338	-8.97375	239.402	-31.8244	65.4362	236.85	-40.6448	94.9675	206.063	-21.0091	75.774	
381	3.175	173.799	-50.6397	67.199	174.525	-60.2705	26.5385	180.555	-64.7528	-0.0505607	201.711	-69.7347	-22.5288	202.564	-7.48654	0.421387	205.534	-17.0909	-33.3335	198.149	-43.9036	-48.6428	231.822	-10.004	-2.85568	230.472	-25.5002	-36.2452	220.519	-56.9319	-45.5175	253.317	-23.0344	3.05626	257.593	-35.9682	-25.9548	240.451	-60.6554	-39.8121	272.245	-45.3088	26.6436	285.088	-44.3918	9.9888	299.206	-42.9659	-10.4341	243.659	-29.5877	64.5199	238.011	-39.6644	95.7037	206.044	-21.2278	76.6302	
382	3.18333	172.807	-48.6978	63.2279	172.624	-61.0367	27.2086	183.293	-62.3242	-1.56109	203.29	-68.8985	-18.8439	202.724	-7.23193	-1.21376	204.938	-15.7141	-32.8243	198.914	-41.5497	-47.5314	229.841	-9.32249	-0.482209	228.735	-19.0373	-33.5077	223.287	-54.4821	-48.0918	255.721	-25.8584	5.93662	255.362	-39.2935	-27.5686	241.13	-67.1977	-36.5476	270.612	-47.0958	29.4727	287.383	-47.251	10.225	296.72	-42.7189	-13.8648	244.637	-32.5711	63.2907	238.449	-42.7243	98.2937	205.239	-22.1606	76.9975	
383	3.19167	176.411	-51.2462	68.7504	173.612	-60.8082	28.1866	186.175	-62.4713	0.374766	201.385	-69.7892	-20.6054	201.795	-5.72198	0.169877	206.743	-16.1333	-32.1618	201.76	-45.1979	-48.3064	230.854	-8.9378	-2.92113	228.557	-18.3175	-35.2386	221.026	-55.4504	-49.3903	254.698	-25.6515	4.8703	252.184	-41.9445	-28.5026	238.483	-65.6205	-34.0953	274.332	-47.3473	25.3758	288.537	-48.8429	8.21872	297.248	-42.282	-15.8953	240.865	-30.6879	64.0301	238.394	-42.7729	97.6839	208.533	-23.8806	79.3256	
384	3.2	175.57	-50.4841	67.5972	172.049	-60.3515	25.6844	185.183	-63.6713	3.73698	204.045	-68.1809	-18.0921	201.428	-5.62738	1.01498	202.589	-12.8415	-29.518	200.49	-41.8069	-46.4806	229.466	-7.99155	-3.11136	227.992	-19.4941	-36.8414	219.906	-50.1224	-51.6097	250.686	-27.3635	6.22632	252.536	-40.8037	-25.3112	233.069	-68.8956	-31.9409	273.254	-47.1191	26.0722	284.293	-47.572	5.93808	299.058	-45.6211	-16.3102	243.833	-30.6103	62.4672	236.36	-42.6018	96.9082	207.514	-21.5595	77.2706	
385	3.20833	175.823	-49.1891	64.8588	173.824	-61.257	29.2601	186.236	-62.4205	0.304925	205.557	-69.6695	-17.0608	205.072	-8.15307	2.12873	206.076	-16.6659	-32.167	198.569	-42.6344	-48.0479	234.928	-9.46104	-1.82526	233.969	-20.9722	-37.2506	220.524	-48.3588	-51.9795	251.025	-28.4718	4.04255	251.147	-43.4784	-25.5581	236.855	-73.1678	-29.915	273.718	-48.7348	26.3494	284.227	-48.5412	7.1396	295.441	-44.7873	-14.9829	243.088	-31.2738	66.3516	238.682	-41.654	93.4285	206.319	-21.9005	77.3462	
386	3.21667	177.293	-48.9014	65.3951	172.963	-60.8041	25.9592	188.841	-61.8691	1.08927	207.24	-68.5525	-18.0674	203.346	-6.44471	0.243044	202.736	-14.9196	-32.1182	197.655	-40.2729	-47.4826	236.591	-8.88309	-3.54893	231.381	-15.4369	-34.2813	219.267	-50.002	-53.5414	254.233	-29.6348	1.17053	248.206	-44.9781	-27.6111	233.812	-73.3437	-29.5967	269.325	-47.3975	26.4115	286.466	-50.7618	7.00475	296.11	-46.6502	-16.5426	240.039	-32.3392	63.3301	236.631	-40.5107	94.4391	206.588	-25.2297	77.8887	
387	3.225	175.223	-49.9493	67.4485	174.058	-63.0126	30.6532	185.511	-63.6317	2.50657	203.767	-71.2814	-18.7323	205.892	-8.79872	0.146657	202.87	-17.7144	-33.6638	202.581	-43.6345	-47.0435	231.414	-8.89348	0.751284	234.586	-18.4716	-36.4724	225.01	-50.7466	-52.6487	251.554	-29.1069	2.8872	247.551	-45.0959	-27.3605	236.385	-72.8942	-29.8298	272.434	-47.7367	23.546	286.791	-51.1992	5.29152	294.353	-44.4441	-13.7478	240.938	-30.7612	61.4984	236.942	-41.445	93.7159	211.323	-23.1396	76.6673	
388	3.23333	176.255	-48.9132	66.0975	174.562	-60.3539	24.775	184.689	-64.08	-0.349638	203.696	-70.305	-21.4966	201.943	-7.45283	-2.7336	204.295	-17.2638	-31.8722	202.009	-44.1797	-47.1034	231.985	-9.20732	0.692808	233.249	-17.599	-36.1236	225.278	-48.4749	-51.9162	254.733	-30.1171	0.359392	251.333	-43.9378	-25.4242	234.285	-70.5147	-31.0363	272.511	-50.9069	28.2596	283.376	-50.4191	6.01094	297.775	-49.2995	-17.8241	244.857	-35.7112	66.3244	237.656	-42.1425	96.0836	211.39	-22.768	75.8572	
389	3.24167	172.72	-49.7263	66.1162	174.32	-61.6034	28.1969	184.723	-63.5475	-0.24405	207.775	-69.305	-19.8573	205.679	-8.38096	-2.38768	205.347	-17.1837	-32.9162	197.623	-44.2095	-49.6378	232.914	-7.60809	-3.43842	233.917	-18.6655	-36.4626	226.116	-47.3335	-52.1442	252.948	-28.5795	0.117028	247.502	-44.8079	-27.47	237.679	-73.5643	-29.4807	271.001	-49.7385	25.7785	281.825	-49.9446	5.91525	292.507	-48.4884	-18.2769	244.351	-33.254	66.7096	239.076	-42.1458	97.8773	207.448	-20.8809	73.9566	
390	3.25	173.374	-49.6092	67.7027	174.084	-60.1852	25.5864	186.042	-63.1258	-1.00122	205.949	-69.7844	-19.5834	201.202	-7.22824	-0.14825	202.266	-14.3177	-30.721	201.835	-45.5355	-47.4474	237.048	-11.3486	1.58651	236.703	-18.649	-35.6413	225.363	-46.0234	-52.8493	253.182	-28.7153	0.751705	248.854	-44.8225	-27.6817	230.679	-73.0671	-31.5496	269.797	-48.4685	25.4171	282.63	-51.4818	7.3653	291.849	-49.2202	-16.8206	244.528	-30.2074	62.6863	238.413	-43.1959	96.2981	208.159	-24.7254	77.284	
391	3.25833	176.095	-50.1698	67.8863	172.074	-60.9792	28.5288	183.235	-64.0921	-0.00654348	204.722	-70.5375	-20.3249	205.435	-9.06534	0.290759	203.038	-16.4966	-33.1253	200.612	-46.0903	-48.6495	233.448	-8.69787	2.21676	234.579	-15.026	-34.9357	227.983	-44.7967	-52.7424	252.875	-29.7628	6.3239	253.651	-43.3675	-25.5295	234.364	-71.5449	-32.2828	273.908	-52.0792	23.6502	282.458	-55.4961	3.16067	288.867	-54.536	-22.2139	242.4	-30.7626	63.7882	235.227	-41.1566	93.4112	206.858	-22.1028	77.8261	
392	3.26667	175.339	-48.4834	66.0538	174.598	-59.4979	28.184	187.306	-60.872	0.334035	203.509	-71.473	-20.5665	202.17	-7.83006	-2.06484	203.649	-16.3497	-30.7857	197.824	-44.9494	-47.4042	238.074	-9.78883	1.7863	237.437	-15.7524	-33.5902	225.007	-43.7306	-55.9268	257.724	-29.5849	3.2081	251.884	-42.588	-27.7879	239.145	-69.6004	-33.5378	272.386	-54.1975	24.9481	278.997	-56.5707	4.20366	283.406	-64.3942	-24.0596	246.877	-33.0902	63.4383	240.396	-41.9116	96.8118	211.345	-25.9003	78.0818	
393	3.275	175.853	-46.3536	65.6572	170.37	-60.3869	28.4756	184.321	-61.6475	2.90119	205.543	-68.9245	-19.4835	207.432	-9.26859	-3.50386	205.482	-18.6637	-32.4485	199.087	-44.4859	-47.8191	234.052	-8.13169	1.10028	239.11	-15.043	-34.1765	228.34	-41.3259	-54.3478	256.169	-28.7027	2.18745	252.947	-42.8437	-28.5085	242.598	-67.7935	-35.6817	270.628	-53.0549	20.7217	275.258	-57.4392	1.16281	272.079	-64.5514	-25.3595	242.588	-33.398	65.7872	240.671	-41.5941	95.8249	212.423	-24.0163	77.5663	
394	3.28333	177.653	-49.3005	69.5439	172.451	-59.6076	29.7698	183.097	-61.8008	0.475892	201.343	-71.0205	-17.3414	204.404	-8.04293	1.05731	205.071	-20.4218	-33.4072	200.212	-49.1918	-46.9808	238.746	-9.47324	-1.72106	237.604	-15.469	-34.3136	228.634	-45.4398	-55.9935	252.838	-27.9939	6.76397	255.971	-38.2903	-26.0103	239.637	-62.6489	-39.027	268.495	-54.8778	21.3113	273.304	-63.0539	-5.48797	263.763	-71.0531	-29.5933	243.762	-33.2162	63.9411	240.252	-43.0083	94.5344	210.874	-23.4037	73.8488	
